<?xml version="1.0" standalone="no"?>
<!DOCTYPE svg PUBLIC "-//W3C//DTD SVG 20010904//EN"
 "http://www.w3.org/TR/2001/REC-SVG-20010904/DTD/svg10.dtd">
<svg version="1.0" xmlns="http://www.w3.org/2000/svg"
 width="50" height="50" viewBox="0 0 1166.000000 1280.000000"
 preserveAspectRatio="xMidYMid meet">
<g transform="translate(0.000000,1280.000000) scale(0.100000,-0.100000)"
fill="#74e8ff" stroke="none" stroke-linecap="round">
<path d="M6110 12789 c-47 -5 -175 -16 -285 -24 -793 -64 -1555 -276 -2284
-635 -631 -311 -1168 -696 -1666 -1195 -1101 -1103 -1721 -2424 -1839 -3915
-9 -113 -21 -257 -26 -322 -13 -151 -13 -382 0 -533 6 -66 17 -205 26 -310 68
-856 314 -1690 719 -2445 346 -645 778 -1209 1275 -1668 1089 -1006 2529
-1611 4070 -1712 91 -6 215 -15 276 -20 141 -13 364 -13 574 0 91 5 246 15
345 20 915 54 1633 201 2700 551 940 308 1364 489 1595 683 30 25 58 46 62 46
5 0 8 1438 8 3195 l0 3195 -2774 0 c-2632 0 -2774 -1 -2781 -17 -15 -39 -995
-2794 -995 -2798 0 -3 699 -6 1553 -7 l1552 -3 0 -720 0 -720 -110 -27 c-185
-46 -690 -133 -1030 -179 -448 -60 -934 -18 -1385 118 -500 151 -998 449
-1365 817 -154 155 -235 253 -356 434 -335 503 -499 1105 -501 1842 -2 393 46
686 170 1035 267 753 784 1384 1464 1787 214 126 419 215 653 282 242 69 448
91 765 83 421 -12 739 -67 1137 -198 349 -115 597 -231 849 -397 277 -184 451
-333 648 -556 71 -80 134 -146 140 -146 16 1 2051 2554 2051 2572 0 27 -328
307 -585 500 -1075 806 -2323 1260 -3743 1363 -117 8 -273 20 -348 25 -155 11
-434 11 -559 -1z"/>
</g>
</svg>
